<svg xmlns="http://www.w3.org/2000/svg" viewBox="0 0 130 127" width="130" height="127"><g><path fill="none" d="M16.792 63.751l2.974-3.234-2.974 3.234-9.494-10.32h-.001l9.495 10.322-9.51 10.337 9.51-10.337 2.988 3.248h.001z"/><linearGradient id="a" gradientUnits="userSpaceOnUse" x1="491.136" y1="-443.076" x2="477.712" y2="-451.477" gradientTransform="matrix(.707 .707 -.707 .707 -645.691 28.894)"><stop offset="0" stop-color="#D6E59C"/><stop offset=".326" stop-color="#93D0A3"/><stop offset="1" stop-color="#00A2B4"/></linearGradient><path fill="url(#a)" d="M19.766 60.517l-11.591-6.928c-.328-.196-.632-.241-.877-.158l9.494 10.32 2.974-3.234z"/><linearGradient id="b" gradientUnits="userSpaceOnUse" x1="483.082" y1="-449.839" x2="500.339" y2="-445.328" gradientTransform="matrix(.707 .707 -.707 .707 -645.691 28.894)"><stop offset="0" stop-color="#EC257B"/><stop offset=".647" stop-color="#F7A776"/><stop offset="1" stop-color="#FDEA73"/></linearGradient><path fill="url(#b)" d="M19.781 67.001l3.956-2.365c.802-.482.802-1.265 0-1.744l-3.971-2.374-2.974 3.234 2.989 3.249z"/><linearGradient id="c" gradientUnits="userSpaceOnUse" x1="493.307" y1="-436.641" x2="474.148" y2="-447.913" gradientTransform="matrix(.707 .707 -.707 .707 -645.691 28.894)"><stop offset="0" stop-color="#88CEBC"/><stop offset=".308" stop-color="#5DA2B2"/><stop offset=".777" stop-color="#2165A3"/><stop offset="1" stop-color="#0A4D9D"/></linearGradient><path fill="url(#c)" d="M7.297 53.431c-.353.12-.581.508-.581 1.095l.003 18.474c0 .58.221.962.564 1.09l9.51-10.338-9.496-10.321z"/><linearGradient id="d" gradientUnits="userSpaceOnUse" x1="499.642" y1="-444.943" x2="488.727" y2="-430.564" gradientTransform="matrix(.707 .707 -.707 .707 -645.691 28.894)"><stop offset="0" stop-color="#EF492B"/><stop offset=".005" stop-color="#EE492C"/><stop offset=".689" stop-color="#9A4F7F"/><stop offset="1" stop-color="#7851A0"/></linearGradient><path fill="url(#d)" d="M7.282 74.09c.247.091.556.048.893-.152l11.605-6.937-2.988-3.248-9.51 10.337z"/></g><g><path fill-rule="evenodd" clip-rule="evenodd" fill="#fff" d="M114.542 75.445c-.474 1.109-1.22 1.642-2.245 1.642-.307 0-.713-.055-.951-.128l.164-.877c.203.091.55.147.771.147.582 0 .987-.238 1.351-1.079l.694-1.572-3.747-8.896h1.061l3.215 7.709 3.183-7.709h1.076l-4.572 10.763zm-5.958-2.767c-.029-.225-.046-.454-.046-.688-.326.479-.788.877-1.378 1.191-.59.316-1.152.471-1.922.471-.927 0-1.646-.228-2.159-.691-.511-.462-.769-1.088-.769-1.88 0-.791.373-1.433 1.116-1.924.743-.493 1.704-.738 2.893-.738h2.219v-1.096c0-.631-.215-1.128-.645-1.488-.432-.36-1.037-.543-1.821-.543-.717 0-1.299.167-1.742.491-.439.331-.66.741-.66 1.235h-.974l-.02-.048c-.035-.666.27-1.251.918-1.756.645-.504 1.491-.758 2.531-.758 1.037 0 1.876.25 2.509.748.632.493.949 1.206.949 2.137v4.353c0 .312.015.614.054.909.04.295.104.589.189.873h-1.096c-.063-.303-.111-.573-.146-.798zm-.046-3.503h-2.229c-.852 0-1.557.188-2.111.569-.556.379-.838.838-.838 1.371 0 .503.178.906.533 1.21.355.308.841.461 1.461.461.808 0 1.389-.181 1.983-.538.589-.355.99-.818 1.201-1.379v-1.694zm-8.653-7.858h.951v12.188h-.951v-12.188zm-5.247 12.407c-1.242 0-2.354-.64-3.067-1.644v4.79h-.951v-12.187h.951v1.388c.619-.897 1.752-1.608 3.067-1.608 2.359 0 3.948 1.789 3.948 4.622 0 2.812-1.589 4.639-3.948 4.639zm-.161-8.403c-1.225 0-2.397.963-2.907 1.803v3.901c.509.841 1.681 1.839 2.907 1.839 1.973 0 3.086-1.643 3.086-3.781 0-2.134-1.112-3.762-3.086-3.762zm-9.227 7.528c-.207.114-.414.247-.62.341-.625.284-1.26.355-1.825.355-.601 0-1.542-.039-2.503-.734-1.335-.94-1.918-2.556-1.918-3.965 0-2.916 2.373-4.345 4.309-4.345.677 0 1.372.169 1.937.527.939.621 1.183 1.428 1.317 1.861l-4.421 1.786-1.448.113c.469 2.39 2.086 3.78 3.873 3.78.892 0 1.555-.291 2.163-.591 0 0 .122-.064.035.023l-.899.849zm-1.767-5.604c.359-.131.546-.243.546-.505 0-.751-.85-1.618-1.864-1.618-.752 0-2.161.585-2.161 2.616 0 .317.038.655.057.993l3.422-1.486zm1.603-12.075c0 1.212-1.603 1.339-2.486 1.339-.565 0-1.157-.045-1.422-.054l-.002-4.382c.33-.055 1.009-.109 1.622-.109.748 0 2.087.1 2.087 1.12 0 .565-.437.883-.912.984v.018c.667.101 1.113.465 1.113 1.084zm-2.271-2.486c-.227 0-.374.019-.537.037v1.093h.464c.565 0 1.039-.155 1.039-.583 0-.355-.31-.547-.966-.547zm-.074 1.804h-.472v1.294c.18.019.319.019.536.019.51 0 1.129-.128 1.129-.656.001-.493-.489-.657-1.193-.657zm-5.834 17.366c0 .731.131.845.748.902l.961.092-.696.414h-3.314c.435-.564.509-.62.509-.996v-.42l-.007-11.181h-1.463l1.408-.679h2.69c-.583.337-.757.543-.832 1.201l-.004 10.667zm-2.534-17.302c.026.802.646 1.148 1.368 1.148.519 0 .883-.081 1.232-.2l.163.765c-.383.163-.912.282-1.549.282-1.439 0-2.287-.884-2.287-2.241 0-1.231.748-2.388 2.17-2.388 1.439 0 1.913 1.185 1.913 2.16 0 .209-.019.374-.037.473h-2.973zm1.032-1.869c-.693 0-.986.628-1.032 1.084h1.951c.009-.409-.176-1.084-.919-1.084zm-4.365 3.773h-1.12v-3.572h-1.331v-.866h3.781v.866h-1.33v3.572zm3.1 8.288l-1.205.68h-1.168c.432.355 1.333 1.108 1.333 2.537 0 1.393-.785 2.049-1.577 2.67-.243.244-.527.51-.527.92 0 .416.284.642.489.81l.679.525c.826.697 1.579 1.337 1.579 2.635 0 1.769-1.712 3.553-4.947 3.553-2.725 0-4.042-1.298-4.042-2.689 0-.677.337-1.636 1.449-2.293 1.166-.713 2.745-.808 3.591-.864-.264-.341-.565-.698-.565-1.281 0-.319.096-.509.188-.733-.206.02-.413.04-.601.04-1.995 0-3.122-1.488-3.122-2.955 0-.865.395-1.824 1.205-2.52 1.072-.883 2.35-1.035 3.367-1.035h3.874zm-6.112 9.309c-.416.152-1.62.602-1.62 1.938 0 1.333 1.299 2.294 3.309 2.294 1.805 0 2.764-.865 2.764-2.03 0-.959-.62-1.465-2.047-2.482-.154-.02-.246-.02-.433-.02-.17-.001-1.186.036-1.973.3zm1.05-8.687c-.488 0-1.016.245-1.316.623-.318.392-.413.9-.413 1.389 0 1.259.734 3.348 2.35 3.348.471 0 .978-.229 1.276-.527.435-.434.472-1.033.472-1.374.001-1.353-.806-3.459-2.369-3.459zm-2.764-10.494c0-.711.027-1.039.073-1.877h-.037c-.218.528-.365.847-.583 1.275-.337.656-.748 1.458-1.13 2.187h-1.341v-4.438h1.067v1.594c0 .702-.027 1.176-.064 1.795h.037c.237-.519.364-.847.603-1.312l1.083-2.077h1.357v4.437h-1.066v-1.584zm-4.428.327c0 1.03-1.157 1.35-2.068 1.35-.574 0-1.166-.137-1.603-.392l.254-.72c.31.173.783.3 1.231.31.62 0 .958-.265.958-.602 0-.474-.485-.62-1.114-.62h-.546l.001-.712h.528c.62 0 .975-.246.975-.565 0-.319-.299-.529-.802-.529-.374 0-.783.128-1.093.31l-.248-.665c.493-.292 1.095-.428 1.66-.428.756 0 1.667.292 1.667 1.176 0 .565-.519.893-.976.993v.027c.593.055 1.176.411 1.176 1.067zm-7.105 2.697c-.447.383-.902.529-1.176.565l-.254-.939c.192-.045.419-.146.647-.31.218-.137.464-.401.619-.702l.064-.2-.055-.219-1.631-4.073h1.242l.793 2.378c.091.273.191.611.254.857h.027c.063-.246.145-.583.237-.866l.692-2.369h1.194l-1.112 3.025c-.61 1.66-1.02 2.397-1.541 2.853zm-4.705-1.34c-.557 0-1.022-.237-1.249-.593h-.019v2.296h-1.12l-.001-4.765c0-.583-.019-1.057-.037-1.476h.984l.055.684h.019c.329-.502.847-.784 1.521-.784 1.021 0 1.868.875 1.868 2.26.001 1.604-1.01 2.378-2.021 2.378zm-.221-3.753c-.465 0-.893.337-1.011.829l-.037.283v.683l.027.31c.118.455.51.783.993.783.711 0 1.129-.592 1.129-1.467.001-.784-.381-1.421-1.101-1.421zm-5.228 3.653h-1.12v-4.437h2.934v.884h-1.814v3.553zm-1.773 7.159l-.618.138.44-.702c-.597-.582-1.692-1.657-3.772-1.657-2.781 0-4.88 2.114-4.88 5.201 0 3.315 2.396 6.434 6.238 6.434 1.129 0 1.711-.227 2.238-.439v-2.842l-2.662.143 1.411-.758h3.735l-.457.44c-.123.105-.14.141-.175.281-.018.161-.035.671-.035.851v2.149l-2.521.577c-1.021.161-1.938.303-2.91.303-4.863 0-6.716-3.58-6.716-6.381 0-3.421 2.625-6.593 7.121-6.593.951 0 1.867.14 2.7.367 1.321.372 1.939.829 2.325 1.097l-1.462 1.391zm-1.969-7.159l-.083-.492h-.027c-.264.347-.729.593-1.312.593-.892 0-1.393-.647-1.393-1.321 0-1.112.993-1.685 2.634-1.677v-.072c0-.292-.118-.775-.902-.775-.438 0-.893.137-1.194.329l-.218-.729c.329-.2.902-.392 1.604-.392 1.422 0 1.831.902 1.831 1.877v1.593h-.002c0 .401.019.793.073 1.066h-1.011zm-.155-2.168c-.793-.009-1.549.155-1.549.829 0 .438.283.638.638.638.455 0 .775-.292.883-.61l.027-.246v-.611zm-3.797.447c0 1.331-1.258 1.822-2.388 1.822-.602 0-1.238-.128-1.741-.42l.254-.866c.31.164.902.374 1.439.374.793 0 1.258-.383 1.258-.976 0-.783-.793-.975-1.467-.975h-.484v-.838h.484c.711 0 1.257-.382 1.257-.939 0-.501-.382-.802-1.011-.802-.465 0-.975.192-1.312.374l-.273-.802c.419-.264 1.011-.483 1.777-.483 1.222 0 1.986.62 1.986 1.54 0 .765-.528 1.312-1.248 1.476v.019c.813.102 1.461.648 1.469 1.496zm13.451 9.766c2.763 0 4.492 2.164 4.492 4.437 0 2.219-1.709 4.568-4.776 4.568-2.99 0-4.587-2.328-4.587-4.435 0-2.463 2.012-4.57 4.871-4.57zm-3.047 3.518c0 1.858.922 4.923 3.197 4.923.734 0 1.483-.356 1.918-.957.451-.602.564-1.353.564-2.085 0-1.656-.791-4.815-3.121-4.815-.623 0-1.24.242-1.692.638-.736.658-.866 1.485-.866 2.296zm13.053-3.518c2.765 0 4.496 2.164 4.496 4.437 0 2.219-1.712 4.568-4.778 4.568-2.989 0-4.589-2.328-4.589-4.435 0-2.463 2.011-4.57 4.871-4.57zm-3.047 3.518c0 1.858.918 4.923 3.197 4.923.736 0 1.486-.356 1.92-.957.455-.602.565-1.353.565-2.085 0-1.656-.789-4.815-3.121-4.815-.62 0-1.245.242-1.695.638-.736.658-.866 1.485-.866 2.296z"/><path fill="#fff" d="M21.315 14.808c-.027-2.999 2.456-4.458 2.569-4.526-1.406-2.05-3.585-2.33-4.351-2.352-1.83-.193-3.606 1.095-4.538 1.095-.951 0-2.387-1.077-3.934-1.045-1.991.03-3.854 1.183-4.876 2.974-2.108 3.65-.536 9.014 1.484 11.965 1.011 1.446 2.191 3.058 3.737 3.002 1.512-.061 2.077-.963 3.901-.963 1.808 0 2.338.963 3.914.927 1.623-.025 2.644-1.452 3.62-2.91 1.168-1.655 1.637-3.287 1.655-3.371-.035-.013-3.149-1.203-3.181-4.796zm-2.977-8.819c.813-1.017 1.37-2.401 1.215-3.805-1.177.052-2.649.814-3.497 1.809-.75.876-1.42 2.313-1.247 3.664 1.323.099 2.68-.667 3.529-1.668zm18.811 7.341l-3.987 12.383h2.057l1.102-3.637h4.023l1.157 3.637h2.113l-4.003-12.383h-2.462zm-.478 7.22l1.029-3.233c.269-1.028.465-1.806.588-2.333h.037c.305 1.225.514 2.002.624 2.333l1.047 3.233h-3.325zm13.488-3.95c-1.347 0-2.351.533-3.013 1.6h-.037l-.111-1.416h-1.745c.048 1.003.073 1.981.073 2.935v9.615h1.984v-4.685c.516.845 1.367 1.266 2.549 1.266 1.095 0 2.013-.392 2.752-1.176.825-.881 1.237-2.081 1.237-3.6 0-1.359-.353-2.455-1.055-3.29-.702-.833-1.581-1.249-2.634-1.249zm1.044 6.89c-.416.574-.997.864-1.744.864-.637 0-1.154-.224-1.552-.671-.398-.448-.597-.996-.597-1.645v-1.49c0-.158.031-.358.092-.604.122-.527.382-.952.781-1.278.397-.323.842-.487 1.332-.487.722 0 1.298.294 1.727.881.393.565.588 1.281.588 2.15-.001.945-.21 1.704-.627 2.28zm9.224-6.89c-1.348 0-2.352.533-3.013 1.6h-.037l-.111-1.416h-1.745c.049 1.003.073 1.981.073 2.935v9.615h1.984v-4.685c.516.845 1.367 1.266 2.549 1.266 1.096 0 2.014-.392 2.753-1.176.825-.881 1.237-2.081 1.237-3.6 0-1.359-.354-2.455-1.055-3.29-.703-.833-1.582-1.249-2.635-1.249zm1.045 6.89c-.415.574-.996.864-1.745.864-.638 0-1.156-.225-1.554-.671-.396-.448-.596-.996-.596-1.645v-1.49c0-.158.033-.358.093-.604.122-.527.382-.952.78-1.278.399-.323.844-.487 1.333-.487.722 0 1.296.294 1.725.881.393.565.589 1.281.589 2.15 0 .945-.208 1.704-.625 2.28zm11.022-4.903c-.869-.342-1.47-.662-1.8-.955-.38-.318-.57-.724-.57-1.212 0-.443.167-.816.498-1.122.393-.342.942-.515 1.642-.515.886 0 1.678.19 2.379.569l.498-1.617c-.745-.392-1.684-.588-2.811-.588-1.262 0-2.276.325-3.041.974-.765.65-1.148 1.482-1.148 2.498 0 1.556 1.085 2.739 3.253 3.547.797.293 1.365.612 1.708.955.341.343.516.765.516 1.268 0 .562-.21 1.013-.626 1.349-.415.336-.997.505-1.745.505-1.04 0-1.996-.257-2.866-.772l-.459 1.653c.806.515 1.874.771 3.206.771 1.442 0 2.567-.362 3.373-1.084.732-.662 1.101-1.518 1.101-2.573 0-.855-.251-1.572-.757-2.147-.501-.574-1.285-1.074-2.351-1.504zm7.497-4.029l-1.949.588v1.635h-1.302v1.489h1.303v4.501c0 1.128.222 1.929.662 2.407.442.479 1.054.717 1.838.717.637 0 1.152-.073 1.543-.219l-.055-1.507c-.233.062-.527.092-.881.092-.772 0-1.157-.55-1.157-1.652v-4.336h2.187v-1.492h-2.187v-2.223zm7.734 2.045c-1.359 0-2.441.441-3.244 1.323-.801.881-1.203 2.014-1.203 3.398 0 1.322.389 2.418 1.167 3.288.778.868 1.821 1.303 3.133 1.303 1.359 0 2.45-.452 3.27-1.359.783-.881 1.176-2.008 1.176-3.38 0-1.336-.379-2.425-1.14-3.268-.797-.87-1.849-1.305-3.159-1.305zm1.694 6.745c-.43.719-1.025 1.081-1.783 1.081-.775 0-1.373-.355-1.802-1.063-.355-.585-.532-1.289-.532-2.108 0-.843.177-1.557.532-2.144.415-.709 1.024-1.063 1.819-1.063.771 0 1.367.354 1.783 1.063.355.587.531 1.289.531 2.107 0 .82-.183 1.526-.548 2.127zm8.558-6.748c-.515 0-.992.159-1.434.478-.452.355-.782.828-.992 1.415h-.055l-.073-1.708h-1.728c.038.845.058 1.783.058 2.811v6.117h1.984v-4.685c0-.71.166-1.298.495-1.763.38-.529.919-.791 1.617-.791.219 0 .429.019.625.055l-.002-1.892c-.146-.024-.312-.037-.495-.037zm9.37 4.226c0-1.114-.263-2.052-.787-2.808-.662-.955-1.636-1.432-2.923-1.432-1.31 0-2.351.477-3.122 1.432-.736.894-1.104 2.015-1.104 3.361 0 1.371.396 2.465 1.185 3.279.791.814 1.878 1.221 3.262 1.221 1.151 0 2.148-.183 2.993-.552l-.311-1.376c-.723.282-1.527.422-2.408.422-.797 0-1.445-.208-1.947-.623-.553-.465-.841-1.141-.864-2.023h5.951c.051-.246.075-.545.075-.901zm-6.023-.516c.061-.598.257-1.114.587-1.543.402-.539.93-.808 1.579-.808.708 0 1.237.275 1.58.828.269.429.399.936.385 1.525l-4.131-.002zm-66.212-12.214c-.532 0-1.119-.208-1.426-.37l-.252.858c.498.289 1.129.416 1.725.416 1.119 0 2.366-.488 2.366-1.806-.008-.84-.65-1.382-1.453-1.481v-.02c.714-.163 1.237-.704 1.237-1.463 0-.912-.757-1.526-1.968-1.526-.759 0-1.346.217-1.761.478l.271.795c.334-.181.839-.37 1.3-.37.623 0 1.002.298 1.002.794 0 .552-.542.93-1.246.93h-.479v.831h.479c.667 0 1.453.19 1.453.966-.001.588-.461.968-1.248.968zm3.54-.407c0 .668.497 1.309 1.381 1.309.578 0 1.038-.244 1.3-.587h.027l.082.488h1.002c-.054-.271-.073-.659-.073-1.056h.002v-1.579c0-.966-.406-1.86-1.814-1.86-.695 0-1.264.19-1.589.388l.216.722c.298-.19.749-.326 1.183-.326.777 0 .894.478.894.768v.072c-1.627-.009-2.611.559-2.611 1.661zm2.636-.939v.606l-.027.243c-.108.316-.424.605-.875.605-.353 0-.633-.199-.633-.633 0-.667.749-.83 1.535-.821zm5.659-2.249h-2.907v4.397h1.11v-3.522h1.798v-.875zm1.236 6.185h1.11v-2.275h.019c.225.353.686.587 1.237.587 1.002 0 2.004-.768 2.004-2.357 0-1.372-.84-2.24-1.852-2.24-.668 0-1.182.28-1.507.777h-.019l-.055-.677h-.975c.018.415.036.885.036 1.463l.002 4.722zm1.109-4.306l.036-.28c.117-.487.542-.821 1.002-.821.714 0 1.092.632 1.092 1.409 0 .867-.415 1.453-1.119 1.453-.479 0-.867-.325-.985-.776l-.027-.307v-.678zm8.549-1.879h-1.184l-.686 2.348c-.09.28-.172.614-.234.858h-.027c-.063-.244-.162-.578-.252-.848l-.786-2.357h-1.231l1.616 4.036.055.217-.063.198c-.154.299-.397.56-.613.696-.226.163-.451.262-.641.307l.252.93c.271-.036.722-.18 1.165-.56.516-.452.923-1.182 1.528-2.827l1.101-2.998zm2.247 3.695c-.444-.009-.913-.135-1.22-.307l-.252.714c.433.252 1.02.388 1.588.388.903 0 2.05-.317 2.05-1.338 0-.649-.578-1.002-1.165-1.056v-.028c.452-.099.967-.424.967-.984 0-.876-.903-1.165-1.651-1.165-.56 0-1.157.135-1.645.424l.246.659c.307-.181.713-.307 1.083-.307.498 0 .795.207.795.524 0 .317-.353.561-.967.561h-.523l-.001.705h.542c.623 0 1.104.144 1.104.614-.002.333-.337.596-.951.596zm5.192-1.636c-.237.461-.363.785-.597 1.3h-.036c.036-.614.063-1.084.063-1.779v-1.58h-1.058v4.399h1.329c.378-.722.785-1.517 1.119-2.167.216-.424.362-.74.578-1.263h.036c-.046.831-.073 1.155-.073 1.86v1.57h1.056v-4.398h-1.345l-1.072 2.058zm4.935 2.338h1.11v-3.54h1.318v-.857h-3.747v.858h1.319v3.539zm6.989-.947c-.346.117-.706.198-1.221.198-.716 0-1.33-.344-1.356-1.138h2.946c.018-.099.036-.262.036-.469 0-.966-.469-2.14-1.895-2.14-1.409 0-2.15 1.146-2.15 2.366 0 1.345.84 2.221 2.267 2.221.632 0 1.156-.118 1.535-.28l-.162-.758zm-1.554-2.791c.737 0 .92.668.911 1.075h-1.933c.045-.453.335-1.075 1.022-1.075zm9.594 2.464c0-.614-.442-.975-1.102-1.075v-.017c.471-.1.903-.415.903-.975 0-1.011-1.327-1.11-2.068-1.11-.608 0-1.281.054-1.608.108l.002 4.343c.262.01.849.054 1.409.054.876 0 2.464-.126 2.464-1.328zm-2.783-2.427c.162-.018.307-.036.532-.036.65 0 .957.19.957.541 0 .424-.47.578-1.03.578h-.46v-1.083zm.523 3.052c-.215 0-.353 0-.531-.019v-1.282h.468c.697 0 1.183.163 1.183.65-.001.524-.615.651-1.12.651zM34.962 102.813c-.531 0-1.118-.207-1.424-.37l-.252.857c.497.289 1.127.415 1.722.415 1.118 0 2.362-.487 2.362-1.803-.008-.839-.649-1.379-1.451-1.479v-.019c.713-.162 1.235-.703 1.235-1.46 0-.911-.756-1.524-1.965-1.524-.758 0-1.344.216-1.759.478l.27.793c.334-.18.838-.37 1.298-.37.622 0 1 .297 1 .793 0 .551-.541.929-1.244.929h-.478v.83h.478c.666 0 1.451.19 1.451.965.002.586-.458.965-1.243.965zm3.534-.407c0 .667.496 1.307 1.379 1.307.577 0 1.037-.244 1.298-.586h.027l.082.487h1.001c-.054-.27-.072-.658-.072-1.054h.002v-1.576c0-.964-.405-1.857-1.812-1.857-.694 0-1.262.189-1.587.387l.215.721c.297-.189.748-.325 1.181-.325.776 0 .893.477.893.766v.071c-1.624-.008-2.607.56-2.607 1.659zm2.632-.937v.605l-.027.243c-.108.315-.424.604-.874.604-.352 0-.632-.199-.632-.632 0-.667.748-.829 1.533-.82zm2.747 2.145h1.108v-3.516h1.795v-.874h-2.903v4.39zm8.5-2.254c0-1.37-.839-2.236-1.849-2.236-.667 0-1.18.28-1.505.776h-.019l-.055-.676h-.974c.018.414.036.884.036 1.461l.001 4.715h1.108v-2.272h.019c.225.352.685.586 1.235.586 1.003 0 2.003-.767 2.003-2.354zm-3.229.722l-.027-.307v-.676l.036-.28c.117-.487.541-.82 1.001-.82.712 0 1.091.631 1.091 1.407 0 .866-.414 1.451-1.118 1.451-.479 0-.866-.324-.983-.775zm7.327-2.858l-.685 2.344c-.09.28-.172.613-.234.856h-.027c-.063-.243-.162-.577-.252-.847l-.785-2.353h-1.229l1.614 4.03.055.216-.063.198c-.153.298-.397.559-.612.695-.226.163-.451.262-.64.307l.252.929c.27-.036.721-.18 1.163-.559.516-.451.922-1.18 1.525-2.822l1.1-2.993h-1.182zm3.424 3.689c-.443-.009-.911-.135-1.218-.307l-.252.712c.432.252 1.018.388 1.586.388.902 0 2.047-.317 2.047-1.336 0-.648-.577-1.001-1.163-1.055v-.027c.451-.1.965-.424.965-.983 0-.874-.901-1.163-1.649-1.163-.559 0-1.155.135-1.643.424l.245.658c.307-.18.712-.307 1.081-.307.497 0 .793.207.793.523 0 .316-.352.559-.965.559h-.522l-.001.704h.541c.622 0 1.102.144 1.102.613.001.335-.334.597-.947.597zm6.579-2.723h.036c-.045.829-.072 1.154-.072 1.857v1.568h1.055v-4.391h-1.343l-1.071 2.055c-.237.46-.362.784-.596 1.298h-.036c.036-.613.063-1.082.063-1.776v-1.578h-1.056v4.392h1.327c.377-.721.784-1.514 1.118-2.164.214-.423.36-.739.575-1.261zm3.533 3.424h1.108v-3.534h1.315v-.857h-3.741v.857h1.317v3.534zm5.606.091c.631 0 1.154-.118 1.533-.28l-.162-.757c-.346.117-.705.198-1.219.198-.714 0-1.327-.343-1.353-1.136h2.941c.018-.099.036-.261.036-.468 0-.964-.468-2.137-1.892-2.137-1.406 0-2.147 1.145-2.147 2.363 0 1.343.839 2.217 2.263 2.217zm-.18-3.824c.736 0 .919.667.909 1.073h-1.93c.046-.451.335-1.073 1.021-1.073zm7.119 3.786c.874 0 2.46-.125 2.46-1.325 0-.613-.441-.974-1.1-1.073v-.018c.47-.099.902-.414.902-.974 0-1.01-1.325-1.108-2.065-1.108-.607 0-1.279.054-1.605.108l.002 4.336c.261.01.847.054 1.406.054zm-.319-3.748c.162-.018.307-.036.531-.036.649 0 .956.19.956.541 0 .424-.469.577-1.028.577h-.459v-1.082zm-.008 1.748h.467c.696 0 1.181.162 1.181.649 0 .523-.613.649-1.118.649-.215 0-.352 0-.53-.019v-1.279zm-70.343-.256v1.019l.664-.134v-.88c-.016-1.435.357-1.736 1.325-2.153-.004-.272-.028-.501-.071-.69-1.108.389-1.918.722-1.918 2.838zm5.652-.664v.552l.656-.135v-.417c0-2.32-.362-2.941-2.46-2.627.044.205.079.428.103.667 1.734-.249 1.701.466 1.701 1.96zm-8.641-.771c-.021-1.89.955-2.469 2.758-2.891 2.715-.637 2.887 1.113 2.887 2.227v2.587l.665-.134v-2.395c-.007-2.107-.664-3.685-3.685-3-1.627.369-3.288.784-3.288 3.545v3.246l.664-.132v-3.053zm-5.645 4.98v13.283l18.264 3.652 3.651-1.328v-17.931l-3.651-1.328-18.264 3.652zm7.98 10.536l-4.053-.571v-3.364h4.053v3.935zm0-4.446h-4.053v-3.094l4.053-.572v3.666zm5.618 5.224l-5.109-.747v-3.967h5.109v4.714zm0-5.224h-5.109v-3.697l5.109-.748v4.445zm26.071 5.225c-.209.835-.378 1.575-.508 2.219-.162-1.127-.427-2.331-.793-3.611l-1.461-5.162h-1.628l-1.941 6.888c-.047.167-.2.796-.459 1.885-.121-.691-.264-1.387-.431-2.087l-1.552-6.686h-1.384l2.706 10.199h1.378l2.164-7.771c.093-.329.192-.728.299-1.197.032.148.139.547.32 1.197l2.15 7.771h1.301l2.797-10.199h-1.357l-1.601 6.554zm4.063 3.645h1.252v-7.389h-1.252v7.389zm0-8.759h1.252v-1.44h-1.252v1.44zm8.703 2.073c-.185-.26-.465-.47-.838-.63-.373-.16-.783-.24-1.228-.24-1.025 0-1.809.406-2.352 1.218v-1.051h-1.127v7.389h1.252v-4.035c0-.946.194-1.589.581-1.927.387-.339.848-.508 1.381-.508.334 0 .625.075.873.226.248.151.421.352.518.605s.146.634.146 1.145v4.494h1.252v-4.543c0-.58-.023-.986-.07-1.218-.072-.357-.202-.665-.388-.925zm7.09.146c-.218-.301-.501-.546-.849-.734-.348-.188-.744-.282-1.19-.282-.608 0-1.157.16-1.649.48-.492.32-.861.78-1.106 1.381-.246.601-.369 1.27-.369 2.007 0 .756.136 1.425.407 2.007.271.582.654 1.036 1.148 1.36.494.325 1.035.487 1.625.487.909 0 1.598-.366 2.066-1.099v.932h1.162v-10.199h-1.245v3.66zm-.47 5.006c-.383.448-.848.671-1.395.671-.543 0-1.013-.234-1.412-.703-.399-.468-.598-1.176-.598-2.122 0-.979.187-1.695.56-2.15.373-.454.838-.682 1.395-.682.57 0 1.051.236 1.44.71.39.473.584 1.215.584 2.226 0 .92-.191 1.603-.574 2.05zm6.683-6.022c-.914 0-1.688.274-2.324.821-.761.659-1.141 1.672-1.141 3.04 0 1.248.319 2.203.957 2.866.638.663 1.474.995 2.508.995.645 0 1.24-.151 1.785-.452.545-.302.96-.725 1.245-1.27.285-.545.428-1.293.428-2.244 0-1.173-.322-2.093-.967-2.759-.645-.664-1.476-.997-2.491-.997zm1.551 5.984c-.413.473-.93.71-1.551.71-.626 0-1.146-.235-1.558-.706-.413-.471-.619-1.179-.619-2.125s.206-1.654.619-2.122c.413-.468.932-.703 1.558-.703.617 0 1.133.235 1.548.706.415.471.623 1.163.623 2.077-.001.969-.207 1.69-.62 2.163zm10.13-1.545l-.424 1.426-.369-1.412-1.106-4.286h-1.287l-1.176 4.327-.383 1.524-.438-1.586-1.176-4.265h-1.294l2.261 7.389h1.308l1.496-5.684.285 1.259 1.176 4.425h1.301l2.31-7.389h-1.218l-1.266 4.272zm8.046-.782c-.35-.151-.968-.344-1.854-.581-.612-.167-.981-.274-1.106-.32-.218-.088-.378-.199-.48-.334-.102-.13-.153-.276-.153-.438 0-.255.123-.478.369-.668.246-.19.656-.285 1.231-.285.487 0 .864.107 1.131.32.267.213.428.51.484.891l1.224-.167c-.079-.478-.223-.859-.431-1.144-.209-.285-.532-.511-.971-.678-.438-.167-.947-.251-1.527-.251-.385 0-.746.05-1.082.15-.336.1-.602.222-.797.365-.26.186-.465.419-.616.699-.151.281-.226.586-.226.915 0 .362.091.692.275.991.183.299.452.533.807.703.355.169.991.37 1.91.602.682.172 1.108.313 1.28.424.246.162.369.385.369.668 0 .315-.139.59-.417.824-.278.234-.705.351-1.28.351-.57 0-1.015-.132-1.332-.397s-.511-.645-.581-1.141l-1.238.195c.139.784.46 1.375.964 1.774.503.399 1.235.598 2.195.598.58 0 1.099-.101 1.558-.303.459-.202.811-.487 1.054-.856s.365-.762.365-1.179c0-.427-.1-.784-.299-1.071-.201-.287-.476-.507-.826-.657zm12.652-1.472c-.408-.185-1.161-.402-2.258-.651-1.097-.248-1.775-.49-2.035-.727-.264-.237-.396-.538-.396-.904 0-.422.187-.783.56-1.082.373-.299.968-.449 1.785-.449.784 0 1.376.165 1.778.494.401.329.637.816.706 1.461l1.294-.097c-.023-.598-.19-1.134-.501-1.607-.311-.473-.755-.831-1.332-1.075-.578-.243-1.244-.365-2-.365-.686 0-1.31.116-1.872.348-.561.232-.988.572-1.28 1.019-.292.448-.438.929-.438 1.444 0 .469.119.892.358 1.27s.602.695 1.089.95c.376.2 1.032.412 1.969.637.937.225 1.542.391 1.816.497.427.162.733.363.918.602.185.239.278.518.278.838 0 .315-.096.607-.289.873-.193.267-.486.477-.88.63-.394.153-.849.23-1.364.23-.58 0-1.102-.101-1.565-.303-.464-.202-.806-.466-1.026-.793-.22-.327-.361-.746-.421-1.256l-1.273.111c.018.682.205 1.293.56 1.833s.844.945 1.468 1.214 1.397.404 2.32.404c.728 0 1.383-.133 1.965-.4.582-.267 1.029-.64 1.339-1.12.311-.48.466-.992.466-1.534 0-.547-.141-1.031-.424-1.451-.283-.421-.721-.767-1.315-1.041zm5.608 4.3c-.186 0-.328-.03-.428-.091-.1-.06-.172-.141-.216-.243-.044-.102-.066-.331-.066-.689v-4.32h1.259v-.974h-1.259v-2.581l-1.245.751v1.83h-.918v.974h.918v4.251c0 .751.051 1.244.153 1.478.102.234.278.423.529.567.251.144.603.216 1.058.216.278 0 .594-.037.946-.111l-.181-1.106c-.228.032-.411.048-.55.048zm4.772-6.485c-.914 0-1.688.274-2.324.821-.761.659-1.141 1.672-1.141 3.04 0 1.248.319 2.203.957 2.866.638.663 1.474.995 2.508.995.645 0 1.24-.151 1.785-.452.545-.302.96-.725 1.245-1.27.285-.545.428-1.293.428-2.244 0-1.173-.322-2.093-.967-2.759-.645-.664-1.475-.997-2.491-.997zm1.552 5.984c-.413.473-.93.71-1.552.71-.626 0-1.146-.235-1.558-.706-.413-.471-.619-1.179-.619-2.125s.206-1.654.619-2.122c.413-.468.932-.703 1.558-.703.617 0 1.133.235 1.548.706.415.471.623 1.163.623 2.077 0 .969-.206 1.69-.619 2.163zm5.854-5.733c-.244.167-.509.513-.797 1.037v-1.12h-1.127v7.389h1.252v-3.868c0-.529.07-1.016.209-1.461.093-.292.248-.521.466-.685.218-.165.464-.247.737-.247.306 0 .612.091.918.271l.431-1.162c-.436-.269-.865-.404-1.287-.404-.291-.001-.559.083-.802.25zm9.229 3.597c0-1.22-.313-2.166-.939-2.839-.626-.672-1.433-1.009-2.421-1.009-1.021 0-1.851.343-2.491 1.03-.64.687-.96 1.651-.96 2.894 0 1.201.317 2.135.95 2.8.633.666 1.49.998 2.571.998.858 0 1.563-.209 2.115-.626.552-.417.93-1.004 1.134-1.76l-1.294-.16c-.19.529-.448.914-.772 1.155-.325.241-.717.362-1.176.362-.617 0-1.132-.216-1.544-.647-.413-.431-.643-1.053-.689-1.865h5.51l.006-.333zm-5.448-.696c.042-.645.258-1.159.65-1.544s.875-.578 1.451-.578c.635 0 1.153.241 1.552.724.26.311.417.777.473 1.398h-4.126z"/></g></svg>